[in#0 @ 00000137448d6780] Capturing whole desktop as 1920x1080x32 at (0,0)
[in#0/gdigrab @ 00000137448d6780] Stream #0: not enough frames to estimate rate; consider increasing probesize
Input #0, gdigrab, from 'desktop':
  Duration: N/A, start: 1784882309.180449, bitrate: 1592535 kb/s
  Stream #0:0: Video: bmp, bgra, 1920x1080, 1592535 kb/s, 24 fps, 1000k tbr, 1000k tbn, start 1784882309.180449
Stream mapping:
  Stream #0:0 -> #0:0 (bmp (native) -> h264 (h264_nvenc))
Press [q] to stop, [?] for help
Output #0, mpegts, to 'udp://192.168.0.45:50000?pkt_size=1316':
  Metadata:
    encoder         : Lavf62.12.102
  Stream #0:0: Video: h264 (Main), yuv420p(tv, progressive), 1280x720, q=2-31, 8000 kb/s, 24 fps, 90k tbn
    Metadata:
      encoder         : Lavc62.28.102 h264_nvenc
    Side data:
      CPB properties: bitrate max/min/avg: 8000000/0/8000000 buffer size: 800000 vbv_delay: N/A
frame=    7 fps=0.0 q=4.0 size=     251KiB time=00:00:00.45 bitrate=4492.3kbits/s dup=0 drop=1 speed=0.885x elapsed=0:00:00.51    frame=   17 fps= 17 q=1.0 size=     670KiB time=00:00:00.95 bitrate=5725.1kbits/s dup=0 drop=3 speed=0.93x elapsed=0:00:01.03    frame=   29 fps= 19 q=1.0 size=    1172KiB time=00:00:01.50 bitrate=6398.0kbits/s dup=0 drop=3 speed=0.964x elapsed=0:00:01.55    frame=   40 fps= 19 q=1.0 size=    1632KiB time=00:00:02.00 bitrate=6683.0kbits/s dup=0 drop=3 speed=0.967x elapsed=0:00:02.06    frame=   51 fps= 20 q=4.0 size=    2092KiB time=00:00:02.50 bitrate=6855.2kbits/s dup=0 drop=4 speed=0.969x elapsed=0:00:02.57    frame=   61 fps= 20 q=1.0 size=    2510KiB time=00:00:03.00 bitrate=6854.2kbits/s dup=0 drop=6 speed=0.97x elapsed=0:00:03.09    frame=   72 fps= 20 q=1.0 size=    2970KiB time=00:00:03.50 bitrate=6951.9kbits/s dup=0 drop=6 speed=0.967x elapsed=0:00:03.61    frame=   82 fps= 20 q=1.0 size=    3389KiB time=00:00:04.04 bitrate=6868.3kbits/s dup=0 drop=8 speed=0.978x elapsed=0:00:04.13    frame=   94 fps= 20 q=1.0 size=    3891KiB time=00:00:04.58 bitrate=6954.4kbits/s dup=0 drop=8 speed=0.986x elapsed=0:00:04.64    frame=  104 fps= 20 q=1.0 size=    4309KiB time=00:00:05.12 bitrate=6888.2kbits/s dup=0 drop=10 speed=0.993x elapsed=0:00:05.16    frame=  114 fps= 20 q=1.0 size=    4727KiB time=00:00:05.62 bitrate=6884.7kbits/s dup=0 drop=10 speed=0.991x elapsed=0:00:05.67    frame=  125 fps= 20 q=2.0 size=    5188KiB time=00:00:06.12 bitrate=6938.5kbits/s dup=0 drop=12 speed=0.99x elapsed=0:00:06.18    frame=  134 fps= 20 q=1.0 size=    5564KiB time=00:00:06.58 bitrate=6923.6kbits/s dup=0 drop=12 speed=0.982x elapsed=0:00:06.70    frame=  144 fps= 20 q=1.0 size=    5983KiB time=00:00:07.16 bitrate=6838.5kbits/s dup=0 drop=12 speed=0.993x elapsed=0:00:07.21    frame=  153 fps= 20 q=1.0 size=    6360KiB time=00:00:07.66 bitrate=6795.5kbits/s dup=0 drop=13 speed=0.99x elapsed=0:00:07.74    frame=  166 fps= 20 q=1.0 size=    6903KiB time=00:00:08.25 bitrate=6854.6kbits/s dup=0 drop=13 speed=0.999x elapsed=0:00:08.25    frame=  176 fps= 20 q=1.0 size=    7322KiB time=00:00:08.75 bitrate=6854.6kbits/s dup=0 drop=14 speed=0.998x elapsed=0:00:08.76    frame=  187 fps= 20 q=1.0 size=    7781KiB time=00:00:09.20 bitrate=6922.4kbits/s dup=0 drop=14 speed=0.991x elapsed=0:00:09.29    frame=  198 fps= 20 q=1.0 size=    8241KiB time=00:00:09.70 bitrate=6954.1kbits/s dup=0 drop=15 speed=0.99x elapsed=0:00:09.80    frame=  210 fps= 20 q=1.0 size=    8743KiB time=00:00:10.25 bitrate=6988.0kbits/s dup=0 drop=16 speed=0.994x elapsed=0:00:10.31    frame=  222 fps= 20 q=1.0 size=    9245KiB time=00:00:10.79 bitrate=7018.1kbits/s dup=0 drop=17 speed=0.996x elapsed=0:00:10.82    frame=  234 fps= 21 q=1.0 size=    9747KiB time=00:00:11.29 bitrate=7071.4kbits/s dup=0 drop=17 speed=0.996x elapsed=0:00:11.34    frame=  246 fps= 21 q=1.0 size=   10249KiB time=00:00:11.83 bitrate=7095.0kbits/s dup=0 drop=18 speed=0.997x elapsed=0:00:11.86    frame=  255 fps= 21 q=1.0 size=   10625KiB time=00:00:12.25 bitrate=7105.4kbits/s dup=0 drop=18 speed=0.989x elapsed=0:00:12.38    frame=  266 fps= 21 q=4.0 size=   11095KiB time=00:00:12.83 bitrate=7082.7kbits/s dup=0 drop=19 speed=0.995x elapsed=0:00:12.89    frame=  277 fps= 21 q=1.0 size=   11546KiB time=00:00:13.33 bitrate=7093.9kbits/s dup=0 drop=20 speed=0.995x elapsed=0:00:13.40    frame=  288 fps= 21 q=1.0 size=   12006KiB time=00:00:13.87 bitrate=7088.6kbits/s dup=0 drop=22 speed=0.996x elapsed=0:00:13.92    frame=  298 fps= 21 q=1.0 size=   12425KiB time=00:00:14.37 bitrate=7080.5kbits/s dup=0 drop=23 speed=0.995x elapsed=0:00:14.44    frame=  307 fps= 21 q=1.0 size=   12801KiB time=00:00:14.83 bitrate=7069.7kbits/s dup=0 drop=24 speed=0.992x elapsed=0:00:14.95    [out#0/mpegts @ 00000137448f6b80] video:12573KiB audio:0KiB subtitle:0KiB other streams:0KiB global headers:0KiB muxing overhead: 2.810772%
frame=  309 fps= 21 q=1.0 Lsize=   12927KiB time=00:00:14.95 bitrate=7079.3kbits/s dup=0 drop=24 speed=0.998x elapsed=0:00:14.99    
